<svg xmlns="http://www.w3.org/2000/svg"
     width="25px"
     height="25px"
     viewBox="0 0 24 24"
     fill="#e8eaed">
    <path d="M12 .5C5.73.5.5 5.74.5 12.02c0 5.1 3.29 9.43 7.86 10.96.57.1.78-.25.78-.56v-2.02c-3.2.7-3.88-1.38-3.88-1.38-.53-1.36-1.29-1.72-1.29-1.72-1.05-.72.08-.7.08-.7 1.16.08 1.77 1.2 1.77 1.2 1.03 1.77 2.7 1.26 3.36.96.1-.75.4-1.26.73-1.55-2.55-.29-5.23-1.28-5.23-5.7 0-1.26.45-2.3 1.19-3.11-.12-.3-.52-1.5.11-3.12 0 0 .97-.31 3.18 1.19a10.9 10.9 0 0 1 2.9-.39c.98 0 1.97.13 2.9.39 2.2-1.5 3.17-1.19 3.17-1.19.63 1.62.23 2.82.11 3.12.74.81 1.18 1.85 1.18 3.11 0 4.43-2.68 5.4-5.24 5.69.41.35.78 1.05.78 2.12v3.14c0 .31.2.67.79.56 4.56-1.53 7.85-5.86 7.85-10.96C23.5 5.74 18.27.5 12 .5z"/>
</svg>
